<svg width="20" height="17" viewBox="0 0 20 17" fill="none" xmlns="http://www.w3.org/2000/svg">
<path d="M19.3825 7.405H18.3675V6.1675C18.3675 6.165 18.365 6.1625 18.365 6.16C18.36 5.0175 17.5725 4.0625 16.5125 3.7875V0.6175C16.5125 0.2775 16.2375 0 15.895 0H2.47C1.83 0 1.195 0.2625 0.7225 0.7225C0.2625 1.1825 0 1.8175 0 2.4625V13.5725C0 14.93 1.1075 16.035 2.47 16.035H15.9C16.56 16.035 17.18 15.7775 17.645 15.3125C18.1125 14.8475 18.3675 14.2275 18.3675 13.5725V13.57V12.34H19.3825C19.7225 12.34 20 12.0625 20 11.7225V8.0225C20 7.68 19.725 7.405 19.3825 7.405ZM1.59 1.6025C1.8275 1.37 2.15 1.235 2.47 1.235H15.2825V3.7H2.47C1.7875 3.7 1.235 3.145 1.235 2.465C1.235 2.1425 1.365 1.825 1.59 1.6025ZM17.135 13.5725C17.135 13.8975 17.0075 14.205 16.7725 14.44C16.54 14.6725 16.23 14.8025 15.9 14.8025H2.47C1.7875 14.8025 1.235 14.2525 1.235 13.575V4.5875C1.6 4.8 2.0175 4.9325 2.47 4.9325H15.9C16.58 4.9325 17.135 5.4875 17.135 6.1675V6.17V7.4025H14.53C13.87 7.4025 13.2525 7.66 12.7925 8.12C12.325 8.5775 12.0675 9.2 12.0675 9.8675C12.0675 11.23 13.1725 12.3375 14.5325 12.3375H17.1375V13.5675C17.135 13.57 17.135 13.57 17.135 13.5725ZM18.765 11.105H14.53C13.8525 11.105 13.3 10.55 13.3 9.8675C13.3 9.535 13.425 9.2275 13.66 8.9975C13.895 8.7625 14.1975 8.6375 14.53 8.6375H18.7675V11.105H18.765Z" fill="black"/>
</svg>
