<svg width="422" height="876" viewBox="0 0 422 876" fill="none" xmlns="http://www.w3.org/2000/svg">
<g clip-path="url(#clip0_136_483)">
<rect x="16" y="16" width="390" height="844" rx="22" fill="#16234E"/>
<mask id="mask0_136_483" style="mask-type:alpha" maskUnits="userSpaceOnUse" x="72" y="361" width="103" height="102">
<rect x="72.0923" y="361" width="102.323" height="101.011" rx="9" fill="#16234E"/>
</mask>
<g mask="url(#mask0_136_483)">
<path d="M161.047 400.485C161.047 394.306 156.074 389.278 149.962 389.278C149.618 389.278 149.27 389.293 148.926 389.325C148.407 383.628 143.656 379.15 137.888 379.15C136.864 379.15 135.863 379.288 134.89 379.565C133.556 374.786 129.256 371.436 124.228 371.436C119.164 371.436 114.781 374.933 113.515 379.771C112.348 379.36 111.125 379.15 109.867 379.15C104.091 379.15 99.3362 383.636 98.8259 389.345C98.4184 389.297 98.0109 389.278 97.6074 389.278C91.4953 389.278 86.5225 394.306 86.5225 400.485C86.5225 406.625 91.432 411.625 97.4887 411.689V409.521C92.6267 409.458 88.6904 405.43 88.6904 400.485C88.6904 395.501 92.69 391.446 97.6074 391.446C98.2799 391.446 98.9564 391.525 99.625 391.679L100.99 391.999L100.954 390.496C100.954 390.453 100.95 390.405 100.95 390.362C100.95 385.377 104.95 381.322 109.867 381.322C111.256 381.322 112.589 381.638 113.831 382.263L115.192 382.948L115.39 381.437C115.979 376.974 119.777 373.608 124.228 373.608C128.615 373.608 132.314 376.788 133.026 381.168L133.248 382.521L134.514 381.994C135.59 381.547 136.725 381.322 137.892 381.322C142.81 381.322 146.809 385.377 146.809 390.362L146.778 391.928L148.115 391.643C148.724 391.513 149.345 391.446 149.966 391.446C154.884 391.446 158.883 395.501 158.883 400.485C158.883 405.24 155.244 409.137 150.643 409.493V411.673C156.434 411.317 161.047 406.435 161.047 400.485Z" fill="#B48442"/>
</g>
<rect x="73" y="362" width="100" height="99" rx="8" stroke="#B48442" stroke-width="2"/>
<mask id="mask1_136_483" style="mask-type:alpha" maskUnits="userSpaceOnUse" x="134" y="396" width="14" height="54">
<path d="M146.127 396.682C145.307 396.682 144.613 397.221 144.365 397.962H140.032C137.09 397.962 134.705 400.358 134.705 403.313V449.401C134.705 449.73 134.973 449.999 135.3 449.999C135.628 449.999 135.896 449.73 135.896 449.401V403.317C135.896 401.024 137.745 399.166 140.028 399.166H144.365C144.617 399.907 145.307 400.446 146.127 400.446C147.16 400.446 148 399.602 148 398.568C148 397.534 147.16 396.682 146.127 396.682ZM146.127 399.245C145.753 399.245 145.449 398.94 145.449 398.564C145.449 398.188 145.753 397.883 146.127 397.883C146.502 397.883 146.805 398.188 146.805 398.564C146.805 398.94 146.502 399.245 146.127 399.245Z" fill="white"/>
</mask>
<g mask="url(#mask1_136_483)">
<rect x="132.685" y="395.982" width="16.9963" height="55.1671" rx="2" fill="white"/>
</g>
<mask id="mask2_136_483" style="mask-type:alpha" maskUnits="userSpaceOnUse" x="128" y="389" width="15" height="61">
<path d="M140.288 393.629C141.321 393.629 142.157 392.785 142.157 391.751C142.157 390.718 141.317 389.874 140.288 389.874C139.468 389.874 138.774 390.413 138.525 391.153H134.22C131.279 391.153 128.893 393.55 128.893 396.505V449.402C128.893 449.731 129.161 450 129.489 450C129.816 450 130.084 449.731 130.084 449.402V396.501C130.084 394.207 131.933 392.35 134.216 392.35H138.522C138.774 393.09 139.464 393.629 140.288 393.629ZM140.288 391.066C140.662 391.066 140.966 391.371 140.966 391.748C140.966 392.124 140.662 392.429 140.288 392.429C139.913 392.429 139.61 392.124 139.61 391.748C139.61 391.371 139.913 391.066 140.288 391.066Z" fill="white"/>
</mask>
<g mask="url(#mask2_136_483)">
<rect x="123.533" y="389.415" width="27.4556" height="61.7347" rx="7" fill="white"/>
</g>
<mask id="mask3_136_483" style="mask-type:alpha" maskUnits="userSpaceOnUse" x="122" y="381" width="4" height="69">
<path d="M124.095 381C123.062 381 122.226 381.844 122.226 382.878C122.226 383.701 122.762 384.399 123.499 384.648V449.401C123.499 449.73 123.767 449.999 124.095 449.999C124.422 449.999 124.69 449.73 124.69 449.401V384.652C125.427 384.399 125.964 383.705 125.964 382.882C125.964 381.844 125.124 381 124.095 381ZM124.095 383.563C123.72 383.563 123.417 383.258 123.417 382.882C123.417 382.505 123.72 382.2 124.095 382.2C124.469 382.2 124.773 382.505 124.773 382.882C124.773 383.258 124.465 383.563 124.095 383.563Z" fill="white"/>
</mask>
<g mask="url(#mask3_136_483)">
<rect x="120.918" y="378.907" width="6.53704" height="72.2427" rx="2.5" fill="white"/>
</g>
<mask id="mask4_136_483" style="mask-type:alpha" maskUnits="userSpaceOnUse" x="105" y="389" width="15" height="61">
<path d="M113.775 391.149H109.438C109.186 390.409 108.496 389.87 107.676 389.87C106.643 389.87 105.807 390.714 105.807 391.748C105.807 392.781 106.646 393.625 107.676 393.625C108.496 393.625 109.19 393.086 109.438 392.346H113.775C116.058 392.346 117.907 394.203 117.907 396.497V449.402C117.907 449.731 118.175 450 118.502 450C118.83 450 119.098 449.731 119.098 449.402V396.501C119.102 393.546 116.716 391.149 113.775 391.149ZM107.676 392.433C107.301 392.433 106.997 392.128 106.997 391.752C106.997 391.375 107.301 391.07 107.676 391.07C108.05 391.07 108.354 391.375 108.354 391.752C108.354 392.124 108.05 392.433 107.676 392.433Z" fill="white"/>
</mask>
<g mask="url(#mask4_136_483)">
<rect x="97.385" y="389.415" width="23.5333" height="61.7347" rx="3" fill="white"/>
</g>
<mask id="mask5_136_483" style="mask-type:alpha" maskUnits="userSpaceOnUse" x="100" y="396" width="14" height="54">
<path d="M107.968 397.966H103.631C103.379 397.225 102.689 396.686 101.869 396.686C100.836 396.686 100 397.53 100 398.564C100 399.598 100.84 400.442 101.869 400.442C102.689 400.442 103.383 399.903 103.631 399.162H107.964C110.247 399.162 112.1 401.02 112.1 403.317V449.401C112.1 449.73 112.368 449.999 112.696 449.999C113.023 449.999 113.291 449.73 113.291 449.401V403.317C113.295 400.362 110.91 397.966 107.968 397.966ZM101.869 399.245C101.494 399.245 101.191 398.94 101.191 398.564C101.191 398.188 101.494 397.883 101.869 397.883C102.243 397.883 102.547 398.188 102.547 398.564C102.547 398.94 102.243 399.245 101.869 399.245Z" fill="white"/>
</mask>
<g mask="url(#mask5_136_483)">
<rect x="94.7703" y="395.982" width="22.2259" height="55.1671" rx="3" fill="white"/>
</g>
<mask id="mask6_136_483" style="mask-type:alpha" maskUnits="userSpaceOnUse" x="70" y="394" width="106" height="78">
<ellipse cx="38.5396" cy="52.6652" rx="38.5396" ry="52.6652" transform="matrix(-0.0314867 -0.999504 0.999463 -0.0327704 71.9163 473.392)" fill="#D9D9D9"/>
</mask>
<g mask="url(#mask6_136_483)">
<path d="M146.189 450.998L146.2 448.041M146.189 450.998C146.189 451.12 146.185 451.246 146.173 451.368M146.189 450.998L147.439 451.002L147.439 451C147.439 451.144 147.434 451.31 147.418 451.482M146.189 450.998H147.439L147.445 449.291M146.2 448.041L140.332 450.931C140.332 451.1 140.317 451.269 140.274 451.435C139.858 453.065 138.412 454.269 136.689 454.269H111.192C109.145 454.269 107.483 452.572 107.483 450.482V406.287V405.037H106.233H104.457C102.907 405.037 101.654 406.32 101.654 407.899V450.482C101.654 455.423 105.259 459.494 109.928 460.124M146.2 448.041V449.291H146.223H147.445M146.2 448.041L146.223 448.041H146.224L146.224 448.041L146.223 448.033M146.2 448.041H146.223V448.033M146.2 448.041L146.223 448.033M146.173 451.368C145.749 456.12 141.971 459.888 137.283 460.187M146.173 451.368L147.418 451.486C147.418 451.484 147.418 451.483 147.418 451.482M146.173 451.368L147.418 451.479C147.418 451.48 147.418 451.481 147.418 451.482M137.283 460.187C136.866 461.408 135.733 462.282 134.399 462.282H112.835C111.474 462.282 110.325 461.376 109.928 460.124M137.283 460.187L137.362 461.435C137.616 461.419 137.868 461.393 138.118 461.36M137.283 460.187L138.466 460.591C138.374 460.86 138.257 461.117 138.118 461.36M109.928 460.124L108.736 460.502C108.818 460.76 108.923 461.007 109.048 461.242M109.928 460.124L109.761 461.363C109.52 461.331 109.283 461.29 109.048 461.242M109.048 461.242C104.102 460.228 100.404 455.787 100.404 450.482V407.899C100.404 405.656 102.191 403.787 104.457 403.787H107.483H108.733V405.037V450.482C108.733 451.907 109.86 453.019 111.192 453.019H136.689C137.807 453.019 138.78 452.235 139.063 451.125L139.064 451.124C139.073 451.086 139.082 451.026 139.082 450.931V450.921L139.082 450.911L139.144 447.038V404.013V402.763H140.394H143.42C145.68 402.763 147.473 404.626 147.473 406.875V417.158H156.324L156.328 417.15H157.107C160.571 417.15 163.684 418.952 165.652 421.993C167.874 425.421 168.252 429.907 166.667 433.72L166.666 433.721L166.324 434.543M109.048 461.242C109.772 462.597 111.185 463.532 112.835 463.532H134.399C135.998 463.532 137.376 462.65 138.118 461.36M138.118 461.36C143.083 460.685 146.962 456.571 147.418 451.482M147.445 449.291H147.473V449.219M147.445 449.291L147.446 449.221C147.455 449.22 147.464 449.22 147.473 449.219M147.473 449.219C155.612 448.543 162.861 442.876 166.324 434.543M147.473 449.219V448.041V448.033H146.223M166.324 434.543L166.323 434.544L165.169 434.063M166.324 434.543L165.169 434.063M165.169 434.063C161.696 442.422 154.289 447.863 146.223 448.033M165.169 434.063L165.512 433.24L146.223 448.033M140.394 405.263V447.048V404.013V405.263ZM159.493 430.665L159.494 430.667L159.154 431.483L159.153 431.484C156.862 436.993 152.355 440.615 147.47 441.285V425.052H157.1C158.095 425.052 158.767 425.753 159.146 426.34L159.147 426.34C159.94 427.564 160.089 429.232 159.493 430.665Z" fill="white" stroke="#16234E" stroke-width="2.5"/>
</g>
<path d="M162.036 419.946V420.951C160.345 419.576 158.286 418.808 156.075 418.808H146.858V408.795C146.858 406.601 145.13 404.75 142.912 404.75H140H138.75V406V449V450.25H140H145.234H145.234H145.234H145.234H145.234H145.234H145.235H145.235H145.235H145.235H145.235H145.235H145.236H145.236H145.236H145.236H145.236H145.236H145.237H145.237H145.237H145.237H145.237H145.238H145.238H145.238H145.238H145.238H145.238H145.239H145.239H145.239H145.239H145.239H145.239H145.24H145.24H145.24H145.24H145.24H145.24H145.241H145.241H145.241H145.241H145.241H145.242H145.242H145.242H145.242H145.242H145.242H145.243H145.243H145.243H145.243H145.243H145.243H145.244H145.244H145.244H145.244H145.244H145.244H145.245H145.245H145.245H145.245H145.245H145.246H145.246H145.246H145.246H145.246H145.246H145.247H145.247H145.247H145.247H145.247H145.247H145.248H145.248H145.248H145.248H145.248H145.248H145.249H145.249H145.249H145.249H145.249H145.25H145.25H145.25H145.25H145.25H145.25H145.251H145.251H145.251H145.251H145.251H145.251H145.252H145.252H145.252H145.252H145.252H145.252H145.253H145.253H145.253H145.253H145.253H145.254H145.254H145.254H145.254H145.254H145.254H145.255H145.255H145.255H145.255H145.255H145.255H145.256H145.256H145.256H145.256H145.256H145.256H145.257H145.257H145.257H145.257H145.257H145.258H145.258H145.258H145.258H145.258H145.258H145.259H145.259H145.259H145.259H145.259H145.259H145.26H145.26H145.26H145.26H145.26H145.26H145.261H145.261H145.261H145.261H145.261H145.262H145.262H145.262H145.262H145.262H145.262H145.263H145.263H145.263H145.263H145.263H145.263H145.264H145.264H145.264H145.264H145.264H145.264H145.265H145.265H145.265H145.265H145.265H145.266H145.266H145.266H145.266H145.266H145.266H145.267H145.267H145.267H145.267H145.267H145.267H145.268H145.268H145.268H145.268H145.268H145.268H145.269H145.269H145.269H145.269H145.269H145.27H145.27H145.27H145.27H145.27H145.27H145.271H145.271H145.271H145.271H145.271H145.271H145.272H145.272H145.272H145.272H145.272H145.272H145.273H145.273H145.273H145.273H145.273H145.274H145.274H145.274H145.274H145.274H145.274H145.275H145.275H145.275H145.275H145.275H145.275H145.276H145.276H145.276H145.276H145.276H145.276H145.277H145.277H145.277H145.277H145.277H145.278H145.278H145.278H145.278H145.278H145.278H145.279H145.279H145.279H145.279H145.279H145.279H145.28H145.28H145.28H145.28H145.28H145.28H145.281H145.281H145.281H145.281H145.281H145.282H145.282H145.282H145.282H145.282H145.282H145.283H145.283H145.283H145.283H145.283H145.283H145.284H145.284H145.284H145.284H145.284H145.284H145.285H145.285H145.285H145.285H145.285H145.286H145.286H145.286H145.286H145.286H145.286H145.287H145.287H145.287H145.287H145.287H145.287H145.288H145.288H145.288H145.288H145.288H145.288H145.289H145.289H145.289H145.289H145.289H145.29H145.29H145.29H145.29H145.29H145.29H145.291H145.291H145.291H145.291H145.291H145.291H145.292H145.292H145.292H145.292H145.292H145.292H145.293H145.293H145.293H145.293H145.293H145.294H145.294H145.294H145.294H145.294H145.294H145.295H145.295H145.295H145.295H145.295H145.295H145.296H145.296H145.296H145.296H145.296H145.296H145.297H145.297H145.297H145.297H145.297H145.298H145.298H145.298H145.298H145.298H145.298H145.299H145.299H145.299H145.299H145.299H145.299H145.3H145.3H145.3H145.3H145.3H145.3H145.301H145.301H145.301H145.301H145.301H145.302H145.302H145.302H145.302H145.302H145.302H145.303H145.303H145.303H145.303H145.303H145.303H145.304H145.304H145.304H145.304H145.304H145.304H145.305H145.305H145.305H145.305H145.305H145.306H145.306H145.306H145.306H145.306H145.306H145.307H145.307H145.307H145.307H145.307H145.307H145.308H145.308H145.308H145.308H145.308H145.308H145.309H145.309H145.309H145.309H145.309H145.309H145.31H145.31H145.31H145.31H145.31H145.311H145.311H145.311H145.311H145.311H145.311H145.312H145.312H145.312H145.312H145.312H145.312H145.313H145.313H145.313H145.313H145.313H145.313H145.314H145.314H145.314H145.314H145.314H145.315H145.315H145.315H145.315H145.315H145.315H145.316H145.316H145.316H145.316H145.316H145.316H145.317H145.317H145.317H145.317H145.317H145.317H145.318H145.318H145.318H145.318H145.318H145.319H145.319H145.319H145.319H145.319H145.319H145.32H145.32H145.32H145.32H145.32H145.32H145.321H145.321H145.321H145.321H145.321H145.321H145.322H145.322H145.322H145.322H145.322H145.323H145.604H146.854V450.176C154.696 449.498 161.661 443.95 164.988 435.823L165.317 435.021L165.318 435.02C166.844 431.292 166.481 426.907 164.339 423.553L162.036 419.946ZM158.327 432.023L158.329 432.024L158.001 432.822L158.001 432.823C155.807 438.178 151.506 441.691 146.854 442.363V426.576H156.072C156.995 426.576 157.629 427.238 157.996 427.813L157.996 427.813C158.755 429.002 158.899 430.627 158.327 432.023Z" fill="white" stroke="#16234E" stroke-width="2.5"/>
<mask id="mask7_136_483" style="mask-type:alpha" maskUnits="userSpaceOnUse" x="138" y="398" width="234" height="63">
<rect x="138" y="398" width="234" height="63" fill="#D9D9D9"/>
</mask>
<g mask="url(#mask7_136_483)">
<path d="M162.036 418.946V419.951C160.345 418.576 158.286 417.808 156.075 417.808H146.858V407.795C146.858 405.601 145.13 403.75 142.912 403.75H140H138.75V405V448V449.25H140H145.234H145.234H145.234H145.234H145.234H145.234H145.235H145.235H145.235H145.235H145.235H145.235H145.236H145.236H145.236H145.236H145.236H145.236H145.237H145.237H145.237H145.237H145.237H145.238H145.238H145.238H145.238H145.238H145.238H145.239H145.239H145.239H145.239H145.239H145.239H145.24H145.24H145.24H145.24H145.24H145.24H145.241H145.241H145.241H145.241H145.241H145.242H145.242H145.242H145.242H145.242H145.242H145.243H145.243H145.243H145.243H145.243H145.243H145.244H145.244H145.244H145.244H145.244H145.244H145.245H145.245H145.245H145.245H145.245H145.246H145.246H145.246H145.246H145.246H145.246H145.247H145.247H145.247H145.247H145.247H145.247H145.248H145.248H145.248H145.248H145.248H145.248H145.249H145.249H145.249H145.249H145.249H145.25H145.25H145.25H145.25H145.25H145.25H145.251H145.251H145.251H145.251H145.251H145.251H145.252H145.252H145.252H145.252H145.252H145.252H145.253H145.253H145.253H145.253H145.253H145.254H145.254H145.254H145.254H145.254H145.254H145.255H145.255H145.255H145.255H145.255H145.255H145.256H145.256H145.256H145.256H145.256H145.256H145.257H145.257H145.257H145.257H145.257H145.258H145.258H145.258H145.258H145.258H145.258H145.259H145.259H145.259H145.259H145.259H145.259H145.26H145.26H145.26H145.26H145.26H145.26H145.261H145.261H145.261H145.261H145.261H145.262H145.262H145.262H145.262H145.262H145.262H145.263H145.263H145.263H145.263H145.263H145.263H145.264H145.264H145.264H145.264H145.264H145.264H145.265H145.265H145.265H145.265H145.265H145.266H145.266H145.266H145.266H145.266H145.266H145.267H145.267H145.267H145.267H145.267H145.267H145.268H145.268H145.268H145.268H145.268H145.268H145.269H145.269H145.269H145.269H145.269H145.27H145.27H145.27H145.27H145.27H145.27H145.271H145.271H145.271H145.271H145.271H145.271H145.272H145.272H145.272H145.272H145.272H145.272H145.273H145.273H145.273H145.273H145.273H145.274H145.274H145.274H145.274H145.274H145.274H145.275H145.275H145.275H145.275H145.275H145.275H145.276H145.276H145.276H145.276H145.276H145.276H145.277H145.277H145.277H145.277H145.277H145.278H145.278H145.278H145.278H145.278H145.278H145.279H145.279H145.279H145.279H145.279H145.279H145.28H145.28H145.28H145.28H145.28H145.28H145.281H145.281H145.281H145.281H145.281H145.282H145.282H145.282H145.282H145.282H145.282H145.283H145.283H145.283H145.283H145.283H145.283H145.284H145.284H145.284H145.284H145.284H145.284H145.285H145.285H145.285H145.285H145.285H145.286H145.286H145.286H145.286H145.286H145.286H145.287H145.287H145.287H145.287H145.287H145.287H145.288H145.288H145.288H145.288H145.288H145.288H145.289H145.289H145.289H145.289H145.289H145.29H145.29H145.29H145.29H145.29H145.29H145.291H145.291H145.291H145.291H145.291H145.291H145.292H145.292H145.292H145.292H145.292H145.292H145.293H145.293H145.293H145.293H145.293H145.294H145.294H145.294H145.294H145.294H145.294H145.295H145.295H145.295H145.295H145.295H145.295H145.296H145.296H145.296H145.296H145.296H145.296H145.297H145.297H145.297H145.297H145.297H145.298H145.298H145.298H145.298H145.298H145.298H145.299H145.299H145.299H145.299H145.299H145.299H145.3H145.3H145.3H145.3H145.3H145.3H145.301H145.301H145.301H145.301H145.301H145.302H145.302H145.302H145.302H145.302H145.302H145.303H145.303H145.303H145.303H145.303H145.303H145.304H145.304H145.304H145.304H145.304H145.304H145.305H145.305H145.305H145.305H145.305H145.306H145.306H145.306H145.306H145.306H145.306H145.307H145.307H145.307H145.307H145.307H145.307H145.308H145.308H145.308H145.308H145.308H145.308H145.309H145.309H145.309H145.309H145.309H145.309H145.31H145.31H145.31H145.31H145.31H145.311H145.311H145.311H145.311H145.311H145.311H145.312H145.312H145.312H145.312H145.312H145.312H145.313H145.313H145.313H145.313H145.313H145.313H145.314H145.314H145.314H145.314H145.314H145.315H145.315H145.315H145.315H145.315H145.315H145.316H145.316H145.316H145.316H145.316H145.316H145.317H145.317H145.317H145.317H145.317H145.317H145.318H145.318H145.318H145.318H145.318H145.319H145.319H145.319H145.319H145.319H145.319H145.32H145.32H145.32H145.32H145.32H145.32H145.321H145.321H145.321H145.321H145.321H145.321H145.322H145.322H145.322H145.322H145.322H145.323H145.604H146.854V449.176C154.696 448.498 161.661 442.95 164.988 434.823L165.317 434.021L165.318 434.02C166.844 430.292 166.481 425.907 164.339 422.553L162.036 418.946ZM158.327 431.023L158.329 431.024L158.001 431.822L158.001 431.823C155.807 437.178 151.506 440.691 146.854 441.363V425.576H156.072C156.995 425.576 157.629 426.238 157.996 426.813L157.996 426.813C158.755 428.002 158.899 429.627 158.327 431.023Z" fill="white" stroke="#16234E" stroke-width="2.5"/>
<path d="M178.254 418.096V417.166H177.004H172.095H170.845V417.182H170.75V418.432V447.893V449.143H172H172.095H177.36H178.61V447.893V431.119C178.61 427.425 179.894 425.816 181.037 425.189C182.13 424.625 183.646 424.322 184.248 424.322H185.498V423.072V417.656V416.357L184.199 416.407C184.173 416.408 184.145 416.409 184.116 416.41C183.084 416.449 180.542 416.545 178.254 418.096Z" fill="#B48442" stroke="#16234E" stroke-width="2.5"/>
<path d="M215.137 438.085L215.761 436.4H213.965H208.699H207.941L207.591 437.073C206.514 439.138 204.082 441.108 200.704 441.108C198.008 441.108 194.734 439.616 193.208 435.965H214.724H215.807L215.961 434.894C216.024 434.462 216.125 432.983 216.125 432.033L216.124 432.025C216.073 423.124 208.871 416.406 200.605 416.406C192.007 416.406 184.979 423.303 184.979 432.385C184.979 440.966 191.808 448.415 200.502 448.415C205.221 448.415 212.224 445.942 215.137 438.085ZM208.14 429.414H192.968C193.799 426.423 196.739 423.713 200.553 423.713C204.369 423.713 207.308 426.421 208.14 429.414Z" fill="#B48442" stroke="#16234E" stroke-width="2.5"/>
<path d="M248.515 418.013L243.507 432.789L238.792 418.034L238.514 417.164H237.601H234.159H233.246L232.969 418.034L228.25 432.807L223.197 418.01L222.908 417.164H222.014H216.393H214.591L215.222 418.852L225.701 446.892L226.005 447.705H226.872H229.756H230.667L230.946 446.838L235.881 431.497L240.818 446.838L241.097 447.705H242.008H244.94H245.81L246.112 446.889L256.489 418.848L257.112 417.164H255.316H249.699H248.803L248.515 418.013Z" fill="#B48442" stroke="#16234E" stroke-width="2.5"/>
<path d="M289.962 432.792H291.212C291.212 432.792 291.212 432.793 291.212 432.793C291.212 440.444 285.461 448.419 275.792 448.419C271.727 448.419 268.905 447.086 267.068 445.577V455.821V457.071H265.818H260.553H259.303V455.821V418.416V417.166H260.553H265.363H266.613V418.416V419.575V421.303C269.08 418.701 272.355 417.656 275.439 417.656C284.954 417.656 289.966 425.299 289.962 432.792ZM289.962 432.792C289.962 439.881 284.649 447.169 275.792 447.169C271.371 447.169 268.615 445.475 267.068 443.882L289.962 432.792ZM275.234 441.108C270.658 441.108 266.969 437.411 266.969 432.385C266.969 427.785 270.376 423.713 275.083 423.713C279.992 423.713 283.451 428.037 283.451 432.484C283.451 437.707 279.517 441.108 275.234 441.108Z" fill="#B48442" stroke="#16234E" stroke-width="2.5"/>
<path d="M325.33 432.333V432.333C325.326 423.626 318.114 416.406 308.945 416.406C299.549 416.406 292.562 423.899 292.562 432.234C292.562 439.904 298.741 448.415 308.945 448.415C319.259 448.415 325.33 439.741 325.33 432.333ZM308.945 441.108C303.846 441.108 300.324 436.843 300.324 432.385C300.324 427.978 303.794 423.713 308.945 423.713C314.099 423.713 317.565 427.982 317.565 432.333C317.565 437.015 313.87 441.108 308.945 441.108Z" fill="#B48442" stroke="#16234E" stroke-width="2.5"/>
<path d="M352.168 407.75H350.918V409V419.035C348.643 417.358 345.66 416.406 342.551 416.406C337.215 416.406 333.222 418.585 330.583 421.73C327.971 424.843 326.723 428.855 326.723 432.535C326.723 440.498 332.436 448.414 342.551 448.414C345.865 448.414 348.94 447.431 351.326 445.484V446.456V447.706H352.576H357.434H358.684V446.456V409V407.75H357.434H352.168ZM342.804 441.108C338.016 441.108 334.488 436.952 334.488 432.487C334.488 430.556 335.184 428.334 336.585 426.616C337.961 424.929 340.019 423.716 342.855 423.716C347.577 423.716 351.325 427.203 351.326 432.486C351.322 437.191 347.599 441.108 342.804 441.108Z" fill="#B48442" stroke="#16234E" stroke-width="2.5"/>
</g>
<g filter="url(#filter0_b_136_483)">
<rect x="3" y="16" width="428" height="40" fill="white"/>
</g>
<path fill-rule="evenodd" clip-rule="evenodd" d="M357.845 30H374.511C375.218 30 375.896 30.281 376.397 30.7811C376.897 31.2813 377.178 31.9597 377.178 32.667V38.667V38.667C377.178 39.3743 376.897 40.0527 376.397 40.5529C375.896 41.053 375.218 41.334 374.511 41.334H357.845C356.372 41.334 355.178 40.1399 355.178 38.667V32.667V32.667C355.178 31.1941 356.372 30 357.845 30Z" stroke="#1D1E18"/>
<path d="M378.178 34V38C378.982 37.6612 379.506 36.8731 379.506 36C379.506 35.1269 378.982 34.3388 378.178 34" fill="#1D1E18"/>
<path d="M358.511 32H373.844C374.198 31.9997 374.537 32.1402 374.787 32.3904C375.038 32.6407 375.178 32.9801 375.178 33.334V38.001C375.178 38.7372 374.581 39.334 373.845 39.334H358.511C358.157 39.334 357.818 39.1934 357.568 38.9432C357.318 38.693 357.177 38.3537 357.178 38V33.333C357.178 32.5968 357.775 32 358.511 32Z" fill="#1D1E18"/>
<path fill-rule="evenodd" clip-rule="evenodd" d="M342.506 32.2775C344.722 32.2775 346.853 33.1288 348.459 34.6555C348.579 34.7741 348.772 34.7741 348.892 34.6555L350.048 33.4885C350.109 33.4276 350.142 33.3452 350.141 33.2595C350.14 33.1736 350.104 33.0918 350.041 33.0325C345.826 28.9944 339.177 28.9944 334.961 33.0325C334.899 33.0918 334.863 33.1736 334.861 33.2595C334.861 33.3452 334.894 33.4276 334.954 33.4885L336.11 34.6555C336.23 34.7741 336.423 34.7741 336.543 34.6555C338.15 33.1287 340.281 32.2774 342.497 32.2775H342.506ZM342.506 36.0775C343.724 36.0776 344.898 36.5302 345.8 37.3475C345.922 37.4634 346.115 37.4607 346.233 37.3415L347.388 36.1745C347.449 36.1135 347.483 36.0307 347.482 35.9445C347.481 35.8579 347.445 35.7753 347.382 35.7155C344.634 33.1592 340.378 33.1592 337.63 35.7155C337.568 35.7753 337.531 35.8579 337.53 35.9445C337.53 36.0307 337.563 36.1135 337.624 36.1745L338.778 37.3415C338.897 37.4607 339.089 37.4634 339.211 37.3475C340.113 36.5307 341.286 36.0781 342.503 36.0775H342.506ZM344.819 38.6305C344.821 38.7172 344.787 38.8008 344.725 38.8615L342.738 40.8775C342.68 40.937 342.6 40.9705 342.516 40.9705C342.433 40.9706 342.353 40.9371 342.294 40.8775L340.294 38.8615C340.232 38.8008 340.198 38.7172 340.2 38.6305C340.201 38.5447 340.238 38.463 340.3 38.4045C341.576 37.326 343.444 37.326 344.719 38.4045C344.782 38.463 344.818 38.5447 344.819 38.6305Z" fill="#1D1E18"/>
<path fill-rule="evenodd" clip-rule="evenodd" d="M328.844 30H327.844C327.291 30 326.844 30.4477 326.844 31V39.667C326.844 40.2193 327.291 40.667 327.844 40.667H328.844C329.396 40.667 329.844 40.2193 329.844 39.667V31C329.844 30.4477 329.396 30 328.844 30ZM323.177 32.333H324.177C324.729 32.333 325.177 32.7807 325.177 33.333V39.666C325.177 40.2183 324.729 40.666 324.177 40.666H323.177C322.624 40.666 322.177 40.2183 322.177 39.666V33.333C322.177 32.7807 322.624 32.333 323.177 32.333ZM319.511 34.666H318.511H318.51C317.958 34.6666 317.511 35.1141 317.511 35.666V39.666C317.511 40.2183 317.958 40.666 318.511 40.666H319.511C320.063 40.666 320.511 40.2183 320.511 39.666V35.666C320.511 35.1137 320.063 34.666 319.511 34.666ZM314.844 36.666H313.844C313.291 36.666 312.844 37.1137 312.844 37.666V39.666C312.844 40.2183 313.291 40.666 313.844 40.666H314.844C315.396 40.666 315.844 40.2183 315.844 39.666V37.666C315.844 37.1137 315.396 36.666 314.844 36.666Z" fill="#1D1E18"/>
<path fill-rule="evenodd" clip-rule="evenodd" d="M41.6124 41.3492C44.1214 41.3492 45.6124 39.3872 45.6124 36.0652C45.6491 34.9835 45.4081 33.9104 44.9124 32.9482C44.3052 31.7193 43.0365 30.9579 41.6664 31.0002C40.7106 30.9348 39.771 31.2721 39.075 31.9304C38.379 32.5888 37.9901 33.5082 38.0024 34.4662C37.9683 35.3405 38.2982 36.1897 38.9136 36.8116C39.5291 37.4335 40.3749 37.7722 41.2494 37.7472C42.3176 37.7989 43.3174 37.2213 43.8064 36.2702H43.9224C43.9224 38.5262 43.0684 39.8702 41.6224 39.8702C40.8369 39.9108 40.1243 39.4121 39.8934 38.6602H38.1394C38.4556 40.3027 39.9431 41.4543 41.6124 41.3492ZM41.6744 36.3492C41.1535 36.3712 40.6471 36.174 40.2781 35.8056C39.9092 35.4372 39.7113 34.9312 39.7324 34.4102C39.7399 33.3333 40.619 32.4663 41.6959 32.4737C42.7729 32.4812 43.6399 33.3603 43.6324 34.4372C43.6423 34.9552 43.4374 35.4542 43.0663 35.8156C42.6952 36.1771 42.1909 36.3688 41.6734 36.3452L41.6744 36.3492ZM49.7784 38.979C49.7835 39.5736 49.307 40.0605 48.7124 40.0682L48.7114 40.0642C48.4208 40.0768 48.1381 39.9681 47.9308 39.764C47.7235 39.56 47.6104 39.279 47.6184 38.9882C47.6185 38.3936 48.0992 37.9108 48.6938 37.9083C49.2884 37.9058 49.7732 38.3844 49.7784 38.979ZM48.7124 34.9412C49.003 34.9556 49.2865 34.8479 49.4942 34.6441C49.702 34.4403 49.8151 34.1591 49.8064 33.8682C49.7885 33.2772 49.3042 32.8073 48.7129 32.8073C48.1216 32.8073 47.6373 33.2772 47.6194 33.8682C47.6131 34.1577 47.7268 34.4368 47.9337 34.6394C48.1406 34.8419 48.4222 34.9497 48.7114 34.9372L48.7124 34.9412ZM58.3124 41.1102H56.6244V39.2712H51.8054V37.6992C52.6944 36.0652 54.0824 33.8712 55.8254 31.2462H58.3134V37.7812H59.6454V39.2712H58.3124V41.1102ZM53.4394 37.7192C54.5874 35.6962 55.6134 34.0752 56.5564 32.6812H56.6564V37.8222H53.4394V37.7192ZM65.4544 41.1102H63.6904L63.6894 33.0272H63.5734L61.1194 34.7502V33.0502L63.6974 31.2462H65.4544V41.1102Z" fill="#1D1E18"/>
</g>
<rect x="8" y="8" width="406" height="860" rx="30" stroke="#1D1E18" stroke-width="16"/>
<defs>
<filter id="filter0_b_136_483" x="-27" y="-14" width="488" height="100" filterUnits="userSpaceOnUse" color-interpolation-filters="sRGB">
<feFlood flood-opacity="0" result="BackgroundImageFix"/>
<feGaussianBlur in="BackgroundImageFix" stdDeviation="15"/>
<feComposite in2="SourceAlpha" operator="in" result="effect1_backgroundBlur_136_483"/>
<feBlend mode="normal" in="SourceGraphic" in2="effect1_backgroundBlur_136_483" result="shape"/>
</filter>
<clipPath id="clip0_136_483">
<rect x="16" y="16" width="390" height="844" rx="22" fill="white"/>
</clipPath>
</defs>
</svg>
